<svg width="120px" height="120px" viewBox="0 0 120 120" version="1.1" xmlns="http://www.w3.org/2000/svg" xmlns:xlink="http://www.w3.org/1999/xlink">
    <title>头像</title>
    <g id="页面-1" stroke="none" stroke-width="1" fill="none" fill-rule="evenodd">
        <g id="画板" transform="translate(-281.000000, -411.000000)" fill-rule="nonzero">
            <g id="头像" transform="translate(281.000000, 411.000000)">
                <path d="M60,0.789473684 C38.8461162,0.789473684 19.2991213,12.0749359 8.7221793,30.3947366 C-1.8547627,48.7145373 -1.8547627,71.2854627 8.7221793,89.6052634 C19.2991213,107.925064 38.8461162,119.210526 60,119.210526 C92.7010707,119.210526 119.210526,92.7010707 119.210526,60 C119.210526,27.2989293 92.7010707,0.789473684 60,0.789473684 Z" id="形状" fill="#C0C4CC"></path>
                <path d="M59.6210526,21.5368421 C65.995423,21.5368421 71.8855841,24.937528 75.0727693,30.4578947 C78.2599545,35.9782613 78.2599545,42.7796335 75.0727693,48.3000001 C71.8855841,53.8203667 65.995423,57.2210526 59.6210526,57.2210526 C49.76713,57.2210526 41.7789474,49.23287 41.7789474,39.3789474 C41.7789474,29.5250247 49.76713,21.5368421 59.6210526,21.5368421 Z" id="路径" fill="#FFFFFF"></path>
                <path d="M25.9976207,89.5950873 C25.8021046,72.7811023 35.4248933,62.341331 47.4873818,58.2394737 L59.8728969,75.88835 L72.9214662,58.6460295 C84.55892,63.0019841 93.807678,73.3183367 93.9946933,89.6096071 C72.5984398,96.8550117 50.0460915,97.3777262 25.9976207,89.5950873 L25.9976207,89.5950873 Z" id="路径" fill="#FFFFFF"></path>
            </g>
        </g>
    </g>
</svg>