<svg width="80px" height="80px" viewBox="0 0 80 80" version="1.1" xmlns="http://www.w3.org/2000/svg" xmlns:xlink="http://www.w3.org/1999/xlink">
    <title>播放</title>
    <g id="页面-1" stroke="none" stroke-width="1" fill="none" fill-rule="evenodd">
        <g id="画板" transform="translate(-33.000000, -253.000000)" fill-rule="nonzero">
            <g id="播放" transform="translate(33.000000, 253.000000)">
                <rect id="矩形" fill="#000000" opacity="0" x="0" y="0" width="80" height="80"></rect>
                <path d="M40,-4.08873497e-07 C17.90861,-4.08873497e-07 0,17.90861 0,39.9999996 C0,62.09139 17.90861,79.9999996 40,79.9999996 C62.09139,79.9999996 80,62.09139 80,39.9999996 C80.0015159,29.3908758 75.7877291,19.2158384 68.2859453,11.7140547 C60.7841616,4.21227089 50.6091242,-0.001515917 40,-4.08873497e-07 Z" id="形状" fill="#FFFFFF"></path>
                <path d="M56.9257143,41.3542857 L34.7428571,59.2057143 C34.2235982,59.6201097 33.5130181,59.7008554 32.9140204,59.4135313 C32.3150227,59.1262072 31.9332444,58.5214847 31.9314286,57.8571429 L31.9314286,22.1542857 C31.9314286,20.7028571 33.6114286,19.8914286 34.7428571,20.8057143 L56.9257143,38.6628571 C57.3378072,38.9890894 57.5781212,39.4858355 57.5781212,40.0114286 C57.5781212,40.5370216 57.3378072,41.0337677 56.9257143,41.36 L56.9257143,41.3542857 Z" id="路径" fill="#000000"></path>
            </g>
        </g>
    </g>
</svg>